# MagicaVoxel @ Ephtracy

# group
o 

# material
mtllib flag.mtl
usemtl palette

# normals
vn -1 0 0
vn 1 0 0
vn 0 0 1
vn 0 0 -1
vn 0 -1 0
vn 0 1 0

# texcoords
vt 0.818359 0.5
vt 0.958984 0.5

# verts
v -0.2 0 0.2
v -0.2 0 0.1
v -0.2 0.5 0.1
v -0.2 0.5 0
v -0.2 0.6 0
v -0.2 0.6 -0.2
v -0.2 0.7 -0.2
v -0.2 0.7 -0.3
v -0.2 0.8 -0.3
v -0.2 0.8 -0.4
v -0.2 0.9 -0.4
v -0.2 0.9 -0.5
v -0.2 1 0.2
v -0.2 1 0.1
v -0.2 1 -0.5
v -0.1 0 0.2
v -0.1 0 0.1
v -0.1 0.5 0.1
v -0.1 0.5 0
v -0.1 0.6 0
v -0.1 0.6 -0.2
v -0.1 0.7 -0.2
v -0.1 0.7 -0.3
v -0.1 0.8 -0.3
v -0.1 0.8 -0.4
v -0.1 0.9 -0.4
v -0.1 0.9 -0.5
v -0.1 1 0.2
v -0.1 1 0.1
v -0.1 1 -0.5
v -0.2 0 0.2
v -0.2 1 0.2
v -0.1 0 0.2
v -0.1 1 0.2
v -0.2 0 0.1
v -0.2 0.5 0.1
v -0.1 0 0.1
v -0.1 0.5 0.1
v -0.2 0.5 0
v -0.2 0.6 0
v -0.1 0.5 0
v -0.1 0.6 0
v -0.2 0.6 -0.2
v -0.2 0.7 -0.2
v -0.1 0.6 -0.2
v -0.1 0.7 -0.2
v -0.2 0.7 -0.3
v -0.2 0.8 -0.3
v -0.1 0.7 -0.3
v -0.1 0.8 -0.3
v -0.2 0.8 -0.4
v -0.2 0.9 -0.4
v -0.1 0.8 -0.4
v -0.1 0.9 -0.4
v -0.2 0.9 -0.5
v -0.2 1 -0.5
v -0.1 0.9 -0.5
v -0.1 1 -0.5
v -0.2 0 0.2
v -0.1 0 0.2
v -0.2 0 0.1
v -0.1 0 0.1
v -0.2 0.5 0.1
v -0.1 0.5 0.1
v -0.2 0.5 0
v -0.1 0.5 0
v -0.2 0.6 0
v -0.1 0.6 0
v -0.2 0.6 -0.2
v -0.1 0.6 -0.2
v -0.2 0.7 -0.2
v -0.1 0.7 -0.2
v -0.2 0.7 -0.3
v -0.1 0.7 -0.3
v -0.2 0.8 -0.3
v -0.1 0.8 -0.3
v -0.2 0.8 -0.4
v -0.1 0.8 -0.4
v -0.2 0.9 -0.4
v -0.1 0.9 -0.4
v -0.2 0.9 -0.5
v -0.1 0.9 -0.5
v -0.2 1 0.2
v -0.1 1 0.2
v -0.2 1 0.1
v -0.1 1 0.1
v -0.2 1 -0.5
v -0.1 1 -0.5

# faces
f 3/1/1 2/1/1 1/1/1
f 5/2/1 4/2/1 3/2/1
f 7/2/1 6/2/1 5/2/1
f 9/2/1 8/2/1 7/2/1
f 11/2/1 10/2/1 9/2/1
f 13/1/1 3/1/1 1/1/1
f 14/2/1 12/2/1 11/2/1
f 14/1/1 3/1/1 13/1/1
f 14/2/1 5/2/1 3/2/1
f 14/2/1 11/2/1 9/2/1
f 14/2/1 9/2/1 7/2/1
f 14/2/1 7/2/1 5/2/1
f 15/2/1 12/2/1 14/2/1
f 16/1/2 17/1/2 18/1/2
f 18/2/2 19/2/2 20/2/2
f 20/2/2 21/2/2 22/2/2
f 22/2/2 23/2/2 24/2/2
f 24/2/2 25/2/2 26/2/2
f 16/1/2 18/1/2 28/1/2
f 26/2/2 27/2/2 29/2/2
f 28/1/2 18/1/2 29/1/2
f 18/2/2 20/2/2 29/2/2
f 24/2/2 26/2/2 29/2/2
f 22/2/2 24/2/2 29/2/2
f 20/2/2 22/2/2 29/2/2
f 29/2/2 27/2/2 30/2/2
f 33/1/3 32/1/3 31/1/3
f 34/1/3 32/1/3 33/1/3
f 35/1/4 36/1/4 37/1/4
f 37/1/4 36/1/4 38/1/4
f 39/2/4 40/2/4 41/2/4
f 41/2/4 40/2/4 42/2/4
f 43/2/4 44/2/4 45/2/4
f 45/2/4 44/2/4 46/2/4
f 47/2/4 48/2/4 49/2/4
f 49/2/4 48/2/4 50/2/4
f 51/2/4 52/2/4 53/2/4
f 53/2/4 52/2/4 54/2/4
f 55/2/4 56/2/4 57/2/4
f 57/2/4 56/2/4 58/2/4
f 61/1/5 60/1/5 59/1/5
f 62/1/5 60/1/5 61/1/5
f 65/2/5 64/2/5 63/2/5
f 66/2/5 64/2/5 65/2/5
f 69/2/5 68/2/5 67/2/5
f 70/2/5 68/2/5 69/2/5
f 73/2/5 72/2/5 71/2/5
f 74/2/5 72/2/5 73/2/5
f 77/2/5 76/2/5 75/2/5
f 78/2/5 76/2/5 77/2/5
f 81/2/5 80/2/5 79/2/5
f 82/2/5 80/2/5 81/2/5
f 83/1/6 84/1/6 85/1/6
f 85/1/6 84/1/6 86/1/6
f 85/2/6 86/2/6 87/2/6
f 87/2/6 86/2/6 88/2/6
