# MagicaVoxel @ Ephtracy

# group
o 

# material
mtllib Monster.mtl
usemtl palette

# normals
vn -1 0 0
vn 1 0 0
vn 0 0 1
vn 0 0 -1
vn 0 -1 0
vn 0 1 0

# texcoords
vt 0.681641 0.5
vt 0.994141 0.5

# verts
v -0.5 0 0.5
v -0.5 0 -0.5
v -0.5 0.3 0.5
v -0.5 0.3 -0.5
v -0.4 0.3 0.4
v -0.4 0.3 -0.3
v -0.4 0.4 0.4
v -0.4 0.4 -0.3
v -0.3 0.4 0.3
v -0.3 0.4 -0.2
v -0.3 0.5 0.3
v -0.3 0.5 -0.2
v -0.2 0.5 0.3
v -0.2 0.5 0
v -0.2 0.6 0.5
v -0.2 0.6 0.3
v -0.2 0.6 0.1
v -0.2 0.6 0
v -0.2 0.7 0.5
v -0.2 0.7 0.3
v -0.2 0.7 0.1
v -0.1 0.7 0.5
v -0.1 0.7 0.4
v -0.1 0.8 0.5
v -0.1 0.8 0.4
v 0.1 0.7 0.5
v 0.1 0.7 0.4
v 0.1 0.8 0.5
v 0.1 0.8 0.4
v 0.2 0.5 0.3
v 0.2 0.5 0
v 0.2 0.6 0.5
v 0.2 0.6 0.3
v 0.2 0.6 0.1
v 0.2 0.6 0
v 0.2 0.7 0.5
v 0.2 0.7 0.3
v 0.2 0.7 0.1
v 0.3 0.4 0.3
v 0.3 0.4 -0.2
v 0.3 0.5 0.3
v 0.3 0.5 -0.2
v 0.4 0.3 0.4
v 0.4 0.3 -0.3
v 0.4 0.4 0.4
v 0.4 0.4 -0.3
v 0.5 0 0.5
v 0.5 0 -0.5
v 0.5 0.3 0.5
v 0.5 0.3 -0.5
v -0.5 0 0.5
v -0.5 0.3 0.5
v -0.2 0.6 0.5
v -0.2 0.7 0.5
v -0.1 0.7 0.5
v -0.1 0.8 0.5
v 0.1 0.7 0.5
v 0.1 0.8 0.5
v 0.2 0.6 0.5
v 0.2 0.7 0.5
v 0.5 0 0.5
v 0.5 0.3 0.5
v -0.4 0.3 0.4
v -0.4 0.4 0.4
v 0.4 0.3 0.4
v 0.4 0.4 0.4
v -0.3 0.4 0.3
v -0.3 0.5 0.3
v -0.2 0.5 0.3
v -0.2 0.6 0.3
v 0.2 0.5 0.3
v 0.2 0.6 0.3
v 0.3 0.4 0.3
v 0.3 0.5 0.3
v -0.1 0.7 0.4
v -0.1 0.8 0.4
v 0.1 0.7 0.4
v 0.1 0.8 0.4
v -0.2 0.6 0.1
v -0.2 0.7 0.1
v 0.2 0.6 0.1
v 0.2 0.7 0.1
v -0.2 0.5 0
v -0.2 0.6 0
v 0.2 0.5 0
v 0.2 0.6 0
v -0.3 0.4 -0.2
v -0.3 0.5 -0.2
v 0.3 0.4 -0.2
v 0.3 0.5 -0.2
v -0.4 0.3 -0.3
v -0.4 0.4 -0.3
v 0.4 0.3 -0.3
v 0.4 0.4 -0.3
v -0.5 0 -0.5
v -0.5 0.3 -0.5
v 0.5 0 -0.5
v 0.5 0.3 -0.5
v -0.5 0 0.5
v 0.5 0 0.5
v -0.5 0 -0.5
v 0.5 0 -0.5
v -0.2 0.6 0.5
v 0.2 0.6 0.5
v -0.2 0.6 0.3
v 0.2 0.6 0.3
v -0.5 0.3 0.5
v 0.5 0.3 0.5
v -0.4 0.3 0.4
v 0.4 0.3 0.4
v -0.4 0.3 -0.3
v 0.4 0.3 -0.3
v -0.5 0.3 -0.5
v 0.5 0.3 -0.5
v -0.4 0.4 0.4
v 0.4 0.4 0.4
v -0.3 0.4 0.3
v 0.3 0.4 0.3
v -0.3 0.4 -0.2
v 0.3 0.4 -0.2
v -0.4 0.4 -0.3
v 0.4 0.4 -0.3
v -0.3 0.5 0.3
v -0.2 0.5 0.3
v 0.2 0.5 0.3
v 0.3 0.5 0.3
v -0.2 0.5 0
v 0.2 0.5 0
v -0.3 0.5 -0.2
v 0.3 0.5 -0.2
v -0.2 0.6 0.1
v 0.2 0.6 0.1
v -0.2 0.6 0
v 0.2 0.6 0
v -0.2 0.7 0.5
v -0.1 0.7 0.5
v 0.1 0.7 0.5
v 0.2 0.7 0.5
v -0.1 0.7 0.4
v 0.1 0.7 0.4
v -0.2 0.7 0.3
v 0.2 0.7 0.3
v -0.2 0.7 0.1
v 0.2 0.7 0.1
v -0.1 0.8 0.5
v 0.1 0.8 0.5
v -0.1 0.8 0.4
v 0.1 0.8 0.4

# faces
f 3/1/1 2/1/1 1/1/1
f 4/1/1 2/1/1 3/1/1
f 7/1/1 6/1/1 5/1/1
f 8/1/1 6/1/1 7/1/1
f 11/1/1 10/1/1 9/1/1
f 12/1/1 10/1/1 11/1/1
f 16/1/1 14/1/1 13/1/1
f 17/1/1 14/1/1 16/1/1
f 18/1/1 14/1/1 17/1/1
f 19/2/1 16/2/1 15/2/1
f 20/1/1 17/1/1 16/1/1
f 20/2/1 16/2/1 19/2/1
f 21/1/1 17/1/1 20/1/1
f 24/2/1 23/2/1 22/2/1
f 25/2/1 23/2/1 24/2/1
f 26/2/2 27/2/2 28/2/2
f 28/2/2 27/2/2 29/2/2
f 30/1/2 31/1/2 33/1/2
f 33/1/2 31/1/2 34/1/2
f 34/1/2 31/1/2 35/1/2
f 32/2/2 33/2/2 36/2/2
f 33/1/2 34/1/2 37/1/2
f 36/2/2 33/2/2 37/2/2
f 37/1/2 34/1/2 38/1/2
f 39/1/2 40/1/2 41/1/2
f 41/1/2 40/1/2 42/1/2
f 43/1/2 44/1/2 45/1/2
f 45/1/2 44/1/2 46/1/2
f 47/1/2 48/1/2 49/1/2
f 49/1/2 48/1/2 50/1/2
f 55/2/3 54/2/3 53/2/3
f 57/2/3 55/2/3 53/2/3
f 57/2/3 56/2/3 55/2/3
f 58/2/3 56/2/3 57/2/3
f 59/2/3 57/2/3 53/2/3
f 60/2/3 57/2/3 59/2/3
f 61/1/3 52/1/3 51/1/3
f 62/1/3 52/1/3 61/1/3
f 65/1/3 64/1/3 63/1/3
f 66/1/3 64/1/3 65/1/3
f 69/1/3 68/1/3 67/1/3
f 71/1/3 69/1/3 67/1/3
f 71/1/3 70/1/3 69/1/3
f 72/1/3 70/1/3 71/1/3
f 73/1/3 71/1/3 67/1/3
f 74/1/3 71/1/3 73/1/3
f 75/2/4 76/2/4 77/2/4
f 77/2/4 76/2/4 78/2/4
f 79/1/4 80/1/4 81/1/4
f 81/1/4 80/1/4 82/1/4
f 83/1/4 84/1/4 85/1/4
f 85/1/4 84/1/4 86/1/4
f 87/1/4 88/1/4 89/1/4
f 89/1/4 88/1/4 90/1/4
f 91/1/4 92/1/4 93/1/4
f 93/1/4 92/1/4 94/1/4
f 95/1/4 96/1/4 97/1/4
f 97/1/4 96/1/4 98/1/4
f 101/1/5 100/1/5 99/1/5
f 102/1/5 100/1/5 101/1/5
f 105/2/5 104/2/5 103/2/5
f 106/2/5 104/2/5 105/2/5
f 107/1/6 108/1/6 109/1/6
f 109/1/6 108/1/6 110/1/6
f 107/1/6 109/1/6 111/1/6
f 110/1/6 108/1/6 112/1/6
f 107/1/6 111/1/6 113/1/6
f 111/1/6 112/1/6 113/1/6
f 112/1/6 108/1/6 114/1/6
f 113/1/6 112/1/6 114/1/6
f 115/1/6 116/1/6 117/1/6
f 117/1/6 116/1/6 118/1/6
f 115/1/6 117/1/6 119/1/6
f 118/1/6 116/1/6 120/1/6
f 115/1/6 119/1/6 121/1/6
f 119/1/6 120/1/6 121/1/6
f 120/1/6 116/1/6 122/1/6
f 121/1/6 120/1/6 122/1/6
f 123/1/6 124/1/6 127/1/6
f 125/1/6 126/1/6 128/1/6
f 123/1/6 127/1/6 129/1/6
f 127/1/6 128/1/6 129/1/6
f 128/1/6 126/1/6 130/1/6
f 129/1/6 128/1/6 130/1/6
f 131/1/6 132/1/6 133/1/6
f 133/1/6 132/1/6 134/1/6
f 135/2/6 136/2/6 139/2/6
f 137/2/6 138/2/6 140/2/6
f 135/2/6 139/2/6 141/2/6
f 139/2/6 140/2/6 141/2/6
f 140/2/6 138/2/6 142/2/6
f 141/2/6 140/2/6 142/2/6
f 141/1/6 142/1/6 143/1/6
f 143/1/6 142/1/6 144/1/6
f 145/2/6 146/2/6 147/2/6
f 147/2/6 146/2/6 148/2/6
