# MagicaVoxel @ Ephtracy

# group
o 

# material
mtllib Tricolor_Cat.mtl
usemtl palette

# normals
vn -1 0 0
vn 1 0 0
vn 0 0 1
vn 0 0 -1
vn 0 -1 0
vn 0 1 0

# texcoords
vt 0.0332031 0.5
vt 0.0371094 0.5
vt 0.0683594 0.5
vt 0.537109 0.5

# verts
v -0.5 0 0.5
v -0.5 0 0.2
v -0.5 0 -0.3
v -0.5 0 -0.5
v -0.5 0.1 -0.1
v -0.5 0.1 -0.3
v -0.5 0.1 -0.4
v -0.5 0.1 -0.5
v -0.5 0.3 0.5
v -0.5 0.3 0.2
v -0.5 0.3 -0.1
v -0.5 0.4 0
v -0.5 0.4 -0.2
v -0.5 0.5 0.5
v -0.5 0.5 0.2
v -0.5 0.5 -0.3
v -0.5 0.5 -0.4
v -0.5 0.5 -0.5
v -0.5 0.6 0.3
v -0.5 0.6 0.2
v -0.5 0.8 0.5
v -0.5 0.8 0.3
v -0.5 0.8 0
v -0.5 0.8 -0.2
v -0.5 0.8 -0.3
v -0.5 0.8 -0.5
v -0.5 0.9 0.5
v -0.5 0.9 0.4
v -0.5 0.9 0.3
v -0.5 0.9 0.1
v -0.5 1 0.5
v -0.5 1 0.4
v -0.5 1 0.3
v -0.5 1 0.1
v -0.5 1 -0.5
v 0.5 0 0.5
v 0.5 0 0.4
v 0.5 0 0.3
v 0.5 0 0.1
v 0.5 0 -0.1
v 0.5 0 -0.2
v 0.5 0 -0.4
v 0.5 0 -0.5
v 0.5 0.1 0.5
v 0.5 0.1 0.4
v 0.5 0.1 0.3
v 0.5 0.1 -0.2
v 0.5 0.1 -0.4
v 0.5 0.2 0.3
v 0.5 0.2 0.2
v 0.5 0.2 0.1
v 0.5 0.2 -0.4
v 0.5 0.2 -0.5
v 0.5 0.3 0.3
v 0.5 0.3 0.2
v 0.5 0.3 -0.1
v 0.5 0.3 -0.3
v 0.5 0.3 -0.4
v 0.5 0.3 -0.5
v 0.5 0.4 0.5
v 0.5 0.4 0.4
v 0.5 0.4 -0.1
v 0.5 0.4 -0.3
v 0.5 0.5 0.2
v 0.5 0.5 0.1
v 0.5 0.5 -0.1
v 0.5 0.5 -0.3
v 0.5 0.5 -0.4
v 0.5 0.6 0.4
v 0.5 0.6 0.2
v 0.5 0.7 0
v 0.5 0.7 -0.1
v 0.5 0.7 -0.3
v 0.5 0.7 -0.4
v 0.5 0.8 -0.3
v 0.5 0.8 -0.4
v 0.5 0.9 0
v 0.5 0.9 -0.1
v 0.5 0.9 -0.2
v 0.5 0.9 -0.4
v 0.5 0.9 -0.5
v 0.5 1 0.5
v 0.5 1 0.4
v 0.5 1 0.2
v 0.5 1 -0.2
v 0.5 1 -0.4
v 0.5 1 -0.5
v -0.5 0 0.5
v -0.5 0.3 0.5
v -0.5 0.5 0.5
v -0.5 0.8 0.5
v -0.5 0.9 0.5
v -0.5 1 0.5
v -0.4 0 0.5
v -0.4 0.3 0.5
v -0.4 0.5 0.5
v -0.4 0.6 0.5
v -0.4 0.9 0.5
v -0.4 1 0.5
v -0.3 0 0.5
v -0.3 0.1 0.5
v -0.3 0.6 0.5
v -0.3 0.7 0.5
v -0.3 0.8 0.5
v -0.2 0.7 0.5
v -0.2 0.8 0.5
v -0.1 0.2 0.5
v -0.1 0.7 0.5
v -0.1 0.9 0.5
v -0.1 1 0.5
v 0.1 0 0.5
v 0.1 0.1 0.5
v 0.1 0.2 0.5
v 0.1 0.4 0.5
v 0.1 0.6 0.5
v 0.1 0.7 0.5
v 0.2 0 0.5
v 0.2 0.1 0.5
v 0.2 0.4 0.5
v 0.2 0.6 0.5
v 0.2 0.8 0.5
v 0.3 0.9 0.5
v 0.3 1 0.5
v 0.4 0 0.5
v 0.4 0.1 0.5
v 0.4 0.4 0.5
v 0.4 0.8 0.5
v 0.5 0 0.5
v 0.5 0.1 0.5
v 0.5 0.4 0.5
v 0.5 1 0.5
v -0.5 0 -0.5
v -0.5 0.1 -0.5
v -0.5 0.5 -0.5
v -0.5 0.8 -0.5
v -0.5 1 -0.5
v -0.4 0 -0.5
v -0.4 0.1 -0.5
v -0.4 0.5 -0.5
v -0.4 0.7 -0.5
v -0.4 0.8 -0.5
v -0.4 0.9 -0.5
v -0.4 1 -0.5
v -0.3 0.9 -0.5
v -0.3 1 -0.5
v -0.2 0.9 -0.5
v -0.2 1 -0.5
v 0.1 0 -0.5
v 0.1 0.1 -0.5
v 0.1 0.7 -0.5
v 0.2 0.9 -0.5
v 0.2 1 -0.5
v 0.3 0 -0.5
v 0.3 0.1 -0.5
v 0.3 0.3 -0.5
v 0.3 0.6 -0.5
v 0.4 0.2 -0.5
v 0.4 0.3 -0.5
v 0.4 0.6 -0.5
v 0.5 0 -0.5
v 0.5 0.2 -0.5
v 0.5 0.3 -0.5
v 0.5 0.9 -0.5
v 0.5 1 -0.5
v -0.5 0 0.5
v -0.4 0 0.5
v -0.3 0 0.5
v 0.1 0 0.5
v 0.2 0 0.5
v 0.4 0 0.5
v 0.5 0 0.5
v -0.4 0 0.4
v -0.3 0 0.4
v -0.1 0 0.4
v 0 0 0.4
v 0.1 0 0.4
v 0.2 0 0.4
v 0.4 0 0.4
v 0.5 0 0.4
v -0.1 0 0.3
v 0 0 0.3
v 0.4 0 0.3
v 0.5 0 0.3
v -0.5 0 0.2
v -0.4 0 0.2
v -0.1 0 0.2
v 0.1 0 0.2
v -0.1 0 0.1
v 0.1 0 0.1
v 0.3 0 0.1
v 0.5 0 0.1
v 0.1 0 0
v 0.3 0 0
v 0.3 0 -0.1
v 0.4 0 -0.1
v 0.5 0 -0.1
v 0.1 0 -0.2
v 0.4 0 -0.2
v 0.5 0 -0.2
v -0.5 0 -0.3
v -0.4 0 -0.3
v -0.1 0 -0.3
v 0.1 0 -0.4
v 0.3 0 -0.4
v 0.4 0 -0.4
v 0.5 0 -0.4
v -0.5 0 -0.5
v -0.4 0 -0.5
v 0.1 0 -0.5
v 0.3 0 -0.5
v 0.5 0 -0.5
v -0.5 1 0.5
v -0.4 1 0.5
v -0.1 1 0.5
v 0.3 1 0.5
v 0.5 1 0.5
v -0.5 1 0.4
v -0.4 1 0.4
v 0.4 1 0.4
v 0.5 1 0.4
v -0.5 1 0.3
v -0.4 1 0.3
v -0.3 1 0.3
v -0.1 1 0.3
v 0.3 1 0.3
v 0.4 1 0.2
v 0.5 1 0.2
v -0.5 1 0.1
v -0.3 1 0.1
v -0.2 1 0.1
v 0.3 1 0.1
v 0.2 1 -0.2
v 0.3 1 -0.2
v 0.5 1 -0.2
v -0.4 1 -0.3
v -0.3 1 -0.3
v -0.2 1 -0.3
v 0.2 1 -0.4
v 0.5 1 -0.4
v -0.5 1 -0.5
v -0.4 1 -0.5
v -0.3 1 -0.5
v -0.2 1 -0.5
v 0.2 1 -0.5
v 0.5 1 -0.5

# faces
f 5/3/1 3/3/1 2/3/1
f 6/4/1 4/4/1 3/4/1
f 6/3/1 3/3/1 5/3/1
f 7/4/1 4/4/1 6/4/1
f 8/4/1 4/4/1 7/4/1
f 9/2/1 2/2/1 1/2/1
f 10/3/1 5/3/1 2/3/1
f 10/2/1 2/2/1 9/2/1
f 11/1/1 6/1/1 5/1/1
f 11/3/1 5/3/1 10/3/1
f 11/1/1 7/1/1 6/1/1
f 12/1/1 11/1/1 10/1/1
f 13/1/1 7/1/1 11/1/1
f 13/1/1 11/1/1 12/1/1
f 14/4/1 10/4/1 9/4/1
f 15/1/1 12/1/1 10/1/1
f 15/4/1 10/4/1 14/4/1
f 16/1/1 7/1/1 13/1/1
f 17/2/1 8/2/1 7/2/1
f 17/1/1 7/1/1 16/1/1
f 18/2/1 8/2/1 17/2/1
f 19/3/1 15/3/1 14/3/1
f 20/1/1 12/1/1 15/1/1
f 20/3/1 15/3/1 19/3/1
f 21/3/1 19/3/1 14/3/1
f 22/1/1 20/1/1 19/1/1
f 22/3/1 19/3/1 21/3/1
f 23/1/1 12/1/1 20/1/1
f 23/1/1 20/1/1 22/1/1
f 23/4/1 13/4/1 12/4/1
f 24/1/1 16/1/1 13/1/1
f 24/4/1 13/4/1 23/4/1
f 25/3/1 17/3/1 16/3/1
f 25/1/1 16/1/1 24/1/1
f 25/3/1 18/3/1 17/3/1
f 26/3/1 18/3/1 25/3/1
f 27/1/1 22/1/1 21/1/1
f 27/1/1 23/1/1 22/1/1
f 27/1/1 26/1/1 25/1/1
f 27/1/1 25/1/1 24/1/1
f 27/1/1 24/1/1 23/1/1
f 28/1/1 26/1/1 27/1/1
f 29/1/1 26/1/1 28/1/1
f 30/1/1 26/1/1 29/1/1
f 31/2/1 28/2/1 27/2/1
f 32/4/1 29/4/1 28/4/1
f 32/2/1 28/2/1 31/2/1
f 33/3/1 30/3/1 29/3/1
f 33/4/1 29/4/1 32/4/1
f 34/1/1 26/1/1 30/1/1
f 34/3/1 30/3/1 33/3/1
f 35/1/1 26/1/1 34/1/1
f 36/1/2 37/1/2 44/1/2
f 37/4/2 38/4/2 45/4/2
f 44/1/2 37/1/2 45/1/2
f 38/1/2 39/1/2 46/1/2
f 45/4/2 38/4/2 46/4/2
f 40/1/2 41/1/2 47/1/2
f 41/3/2 42/3/2 47/3/2
f 42/1/2 43/1/2 48/1/2
f 47/3/2 42/3/2 48/3/2
f 46/1/2 39/1/2 49/1/2
f 45/1/2 46/1/2 49/1/2
f 49/1/2 39/1/2 50/1/2
f 39/3/2 40/3/2 51/3/2
f 50/1/2 39/1/2 51/1/2
f 48/1/2 43/1/2 52/1/2
f 47/1/2 48/1/2 52/1/2
f 52/1/2 43/1/2 53/1/2
f 49/3/2 50/3/2 54/3/2
f 45/1/2 49/1/2 54/1/2
f 50/2/2 51/2/2 55/2/2
f 54/3/2 50/3/2 55/3/2
f 40/1/2 47/1/2 56/1/2
f 51/3/2 40/3/2 56/3/2
f 47/1/2 52/1/2 56/1/2
f 56/1/2 52/1/2 57/1/2
f 52/2/2 53/2/2 58/2/2
f 57/1/2 52/1/2 58/1/2
f 58/2/2 53/2/2 59/2/2
f 44/2/2 45/2/2 60/2/2
f 54/1/2 55/1/2 61/1/2
f 60/2/2 45/2/2 61/2/2
f 45/1/2 54/1/2 61/1/2
f 56/3/2 57/3/2 62/3/2
f 51/3/2 56/3/2 62/3/2
f 58/1/2 59/1/2 63/1/2
f 62/3/2 57/3/2 63/3/2
f 57/1/2 58/1/2 63/1/2
f 55/2/2 51/2/2 64/2/2
f 61/1/2 55/1/2 64/1/2
f 60/1/2 61/1/2 64/1/2
f 51/3/2 62/3/2 65/3/2
f 64/2/2 51/2/2 65/2/2
f 62/2/2 63/2/2 66/2/2
f 65/3/2 62/3/2 66/3/2
f 63/1/2 59/1/2 67/1/2
f 66/2/2 63/2/2 67/2/2
f 67/1/2 59/1/2 68/1/2
f 65/1/2 66/1/2 69/1/2
f 60/1/2 64/1/2 69/1/2
f 64/1/2 65/1/2 69/1/2
f 66/1/2 67/1/2 69/1/2
f 69/1/2 67/1/2 70/1/2
f 70/1/2 67/1/2 71/1/2
f 71/1/2 67/1/2 72/1/2
f 67/3/2 68/3/2 73/3/2
f 72/1/2 67/1/2 73/1/2
f 68/1/2 59/1/2 74/1/2
f 73/3/2 68/3/2 74/3/2
f 72/1/2 73/1/2 75/1/2
f 73/2/2 74/2/2 75/2/2
f 74/1/2 59/1/2 76/1/2
f 75/2/2 74/2/2 76/2/2
f 71/2/2 72/2/2 77/2/2
f 70/1/2 71/1/2 77/1/2
f 72/1/2 75/1/2 78/1/2
f 77/2/2 72/2/2 78/2/2
f 75/1/2 76/1/2 78/1/2
f 78/1/2 76/1/2 79/1/2
f 76/1/2 59/1/2 80/1/2
f 79/1/2 76/1/2 80/1/2
f 80/1/2 59/1/2 81/1/2
f 60/1/2 69/1/2 82/1/2
f 69/3/2 70/3/2 83/3/2
f 82/1/2 69/1/2 83/1/2
f 70/1/2 77/1/2 84/1/2
f 83/3/2 70/3/2 84/3/2
f 78/1/2 79/1/2 84/1/2
f 77/1/2 78/1/2 84/1/2
f 79/4/2 80/4/2 85/4/2
f 84/1/2 79/1/2 85/1/2
f 80/2/2 81/2/2 86/2/2
f 85/4/2 80/4/2 86/4/2
f 86/2/2 81/2/2 87/2/2
f 94/2/3 89/2/3 88/2/3
f 95/4/3 90/4/3 89/4/3
f 95/2/3 89/2/3 94/2/3
f 96/3/3 91/3/3 90/3/3
f 96/4/3 90/4/3 95/4/3
f 97/3/3 91/3/3 96/3/3
f 98/2/3 93/2/3 92/2/3
f 98/1/3 92/1/3 91/1/3
f 99/2/3 93/2/3 98/2/3
f 100/1/3 95/1/3 94/1/3
f 100/1/3 97/1/3 96/1/3
f 100/1/3 96/1/3 95/1/3
f 101/1/3 97/1/3 100/1/3
f 102/3/3 91/3/3 97/3/3
f 102/1/3 97/1/3 101/1/3
f 103/3/3 91/3/3 102/3/3
f 104/1/3 99/1/3 98/1/3
f 104/3/3 91/3/3 103/3/3
f 104/1/3 98/1/3 91/1/3
f 105/1/3 103/1/3 102/1/3
f 105/1/3 102/1/3 101/1/3
f 105/2/3 104/2/3 103/2/3
f 106/1/3 99/1/3 104/1/3
f 106/2/3 104/2/3 105/2/3
f 107/1/3 105/1/3 101/1/3
f 107/1/3 106/1/3 105/1/3
f 108/1/3 106/1/3 107/1/3
f 109/1/3 99/1/3 106/1/3
f 109/1/3 106/1/3 108/1/3
f 110/1/3 99/1/3 109/1/3
f 111/3/3 101/3/3 100/3/3
f 112/1/3 107/1/3 101/1/3
f 112/3/3 101/3/3 111/3/3
f 113/3/3 108/3/3 107/3/3
f 113/1/3 107/1/3 112/1/3
f 114/3/3 108/3/3 113/3/3
f 115/3/3 108/3/3 114/3/3
f 116/1/3 109/1/3 108/1/3
f 116/3/3 108/3/3 115/3/3
f 117/1/3 112/1/3 111/1/3
f 118/2/3 113/2/3 112/2/3
f 118/1/3 112/1/3 117/1/3
f 118/2/3 114/2/3 113/2/3
f 119/4/3 115/4/3 114/4/3
f 119/2/3 114/2/3 118/2/3
f 120/1/3 116/1/3 115/1/3
f 120/4/3 115/4/3 119/4/3
f 121/1/3 109/1/3 116/1/3
f 121/1/3 116/1/3 120/1/3
f 122/4/3 110/4/3 109/4/3
f 122/1/3 109/1/3 121/1/3
f 123/4/3 110/4/3 122/4/3
f 124/3/3 118/3/3 117/3/3
f 125/2/3 119/2/3 118/2/3
f 125/3/3 118/3/3 124/3/3
f 126/3/3 120/3/3 119/3/3
f 126/2/3 119/2/3 125/2/3
f 126/3/3 121/3/3 120/3/3
f 127/1/3 123/1/3 122/1/3
f 127/3/3 121/3/3 126/3/3
f 127/1/3 122/1/3 121/1/3
f 128/1/3 125/1/3 124/1/3
f 129/2/3 126/2/3 125/2/3
f 129/1/3 125/1/3 128/1/3
f 130/1/3 127/1/3 126/1/3
f 130/2/3 126/2/3 129/2/3
f 131/1/3 123/1/3 127/1/3
f 131/1/3 127/1/3 130/1/3
f 132/4/4 133/4/4 137/4/4
f 133/2/4 134/2/4 138/2/4
f 137/4/4 133/4/4 138/4/4
f 134/3/4 135/3/4 139/3/4
f 138/2/4 134/2/4 139/2/4
f 139/3/4 135/3/4 140/3/4
f 135/1/4 136/1/4 141/1/4
f 140/3/4 135/3/4 141/3/4
f 141/1/4 136/1/4 142/1/4
f 142/1/4 136/1/4 143/1/4
f 140/1/4 141/1/4 144/1/4
f 141/1/4 142/1/4 144/1/4
f 142/3/4 143/3/4 144/3/4
f 144/3/4 143/3/4 145/3/4
f 140/1/4 144/1/4 146/1/4
f 144/4/4 145/4/4 146/4/4
f 146/4/4 145/4/4 147/4/4
f 137/1/4 138/1/4 148/1/4
f 139/3/4 140/3/4 149/3/4
f 148/1/4 138/1/4 149/1/4
f 138/3/4 139/3/4 149/3/4
f 140/1/4 146/1/4 150/1/4
f 149/3/4 140/3/4 150/3/4
f 146/3/4 147/3/4 151/3/4
f 150/1/4 146/1/4 151/1/4
f 149/1/4 150/1/4 151/1/4
f 151/3/4 147/3/4 152/3/4
f 148/4/4 149/4/4 153/4/4
f 149/1/4 151/1/4 154/1/4
f 153/4/4 149/4/4 154/4/4
f 154/1/4 151/1/4 155/1/4
f 155/1/4 151/1/4 156/1/4
f 153/1/4 154/1/4 157/1/4
f 154/1/4 155/1/4 157/1/4
f 155/2/4 156/2/4 158/2/4
f 157/1/4 155/1/4 158/1/4
f 156/1/4 151/1/4 159/1/4
f 158/2/4 156/2/4 159/2/4
f 153/1/4 157/1/4 160/1/4
f 157/2/4 158/2/4 161/2/4
f 160/1/4 157/1/4 161/1/4
f 158/1/4 159/1/4 162/1/4
f 161/2/4 158/2/4 162/2/4
f 151/2/4 152/2/4 163/2/4
f 162/1/4 159/1/4 163/1/4
f 159/1/4 151/1/4 163/1/4
f 163/2/4 152/2/4 164/2/4
f 172/2/5 166/2/5 165/2/5
f 172/1/5 167/1/5 166/1/5
f 173/3/5 168/3/5 167/3/5
f 173/1/5 167/1/5 172/1/5
f 174/3/5 168/3/5 173/3/5
f 175/3/5 168/3/5 174/3/5
f 176/1/5 169/1/5 168/1/5
f 176/3/5 168/3/5 175/3/5
f 177/3/5 170/3/5 169/3/5
f 177/1/5 169/1/5 176/1/5
f 178/1/5 171/1/5 170/1/5
f 178/3/5 170/3/5 177/3/5
f 179/1/5 171/1/5 178/1/5
f 180/4/5 175/4/5 174/4/5
f 180/3/5 173/3/5 172/3/5
f 180/3/5 174/3/5 173/3/5
f 181/1/5 177/1/5 176/1/5
f 181/4/5 175/4/5 180/4/5
f 181/1/5 176/1/5 175/1/5
f 181/1/5 178/1/5 177/1/5
f 182/4/5 179/4/5 178/4/5
f 182/1/5 178/1/5 181/1/5
f 183/4/5 179/4/5 182/4/5
f 184/2/5 172/2/5 165/2/5
f 185/3/5 180/3/5 172/3/5
f 185/2/5 172/2/5 184/2/5
f 186/1/5 181/1/5 180/1/5
f 186/3/5 180/3/5 185/3/5
f 186/1/5 182/1/5 181/1/5
f 186/1/5 183/1/5 182/1/5
f 187/1/5 183/1/5 186/1/5
f 188/3/5 185/3/5 184/3/5
f 188/3/5 186/3/5 185/3/5
f 188/4/5 187/4/5 186/4/5
f 189/1/5 183/1/5 187/1/5
f 189/4/5 187/4/5 188/4/5
f 190/1/5 183/1/5 189/1/5
f 191/1/5 183/1/5 190/1/5
f 192/1/5 189/1/5 188/1/5
f 192/1/5 190/1/5 189/1/5
f 193/3/5 191/3/5 190/3/5
f 193/1/5 190/1/5 192/1/5
f 194/4/5 193/4/5 192/4/5
f 194/3/5 191/3/5 193/3/5
f 195/3/5 191/3/5 194/3/5
f 196/3/5 191/3/5 195/3/5
f 197/1/5 192/1/5 188/1/5
f 197/4/5 194/4/5 192/4/5
f 197/4/5 195/4/5 194/4/5
f 198/1/5 196/1/5 195/1/5
f 198/4/5 195/4/5 197/4/5
f 199/1/5 196/1/5 198/1/5
f 200/3/5 188/3/5 184/3/5
f 201/3/5 188/3/5 200/3/5
f 202/1/5 197/1/5 188/1/5
f 202/3/5 188/3/5 201/3/5
f 202/1/5 198/1/5 197/1/5
f 203/1/5 202/1/5 201/1/5
f 203/1/5 198/1/5 202/1/5
f 204/1/5 198/1/5 203/1/5
f 205/3/5 199/3/5 198/3/5
f 205/1/5 198/1/5 204/1/5
f 206/3/5 199/3/5 205/3/5
f 207/4/5 201/4/5 200/4/5
f 208/1/5 203/1/5 201/1/5
f 208/4/5 201/4/5 207/4/5
f 209/4/5 204/4/5 203/4/5
f 209/1/5 203/1/5 208/1/5
f 210/1/5 205/1/5 204/1/5
f 210/4/5 204/4/5 209/4/5
f 210/1/5 206/1/5 205/1/5
f 211/1/5 206/1/5 210/1/5
f 212/2/6 213/2/6 217/2/6
f 213/1/6 214/1/6 218/1/6
f 217/2/6 213/2/6 218/2/6
f 215/1/6 216/1/6 219/1/6
f 219/1/6 216/1/6 220/1/6
f 217/4/6 218/4/6 221/4/6
f 218/1/6 214/1/6 222/1/6
f 221/4/6 218/4/6 222/4/6
f 222/1/6 214/1/6 223/1/6
f 214/4/6 215/4/6 224/4/6
f 223/1/6 214/1/6 224/1/6
f 215/1/6 219/1/6 225/1/6
f 224/4/6 215/4/6 225/4/6
f 223/1/6 224/1/6 226/1/6
f 225/1/6 219/1/6 226/1/6
f 224/1/6 225/1/6 226/1/6
f 219/3/6 220/3/6 226/3/6
f 226/3/6 220/3/6 227/3/6
f 222/3/6 223/3/6 228/3/6
f 221/3/6 222/3/6 228/3/6
f 226/1/6 227/1/6 229/1/6
f 228/3/6 223/3/6 229/3/6
f 223/1/6 226/1/6 229/1/6
f 229/1/6 227/1/6 230/1/6
f 230/1/6 227/1/6 231/1/6
f 230/3/6 231/3/6 232/3/6
f 231/1/6 227/1/6 233/1/6
f 232/3/6 231/3/6 233/3/6
f 233/1/6 227/1/6 234/1/6
f 228/1/6 229/1/6 235/1/6
f 229/1/6 230/1/6 235/1/6
f 235/1/6 230/1/6 236/1/6
f 230/3/6 232/3/6 237/3/6
f 236/1/6 230/1/6 237/1/6
f 233/4/6 234/4/6 238/4/6
f 237/3/6 232/3/6 238/3/6
f 232/4/6 233/4/6 238/4/6
f 238/4/6 234/4/6 239/4/6
f 228/1/6 235/1/6 240/1/6
f 235/3/6 236/3/6 241/3/6
f 240/1/6 235/1/6 241/1/6
f 236/4/6 237/4/6 242/4/6
f 241/3/6 236/3/6 242/3/6
f 237/3/6 238/3/6 243/3/6
f 242/4/6 237/4/6 243/4/6
f 238/2/6 239/2/6 244/2/6
f 243/3/6 238/3/6 244/3/6
f 244/2/6 239/2/6 245/2/6
